<svg width="97" height="98" viewBox="0 0 97 98" fill="none" xmlns="http://www.w3.org/2000/svg">
<path d="M77.0727 48.9636C77.5989 49.0379 78.1053 49.2153 78.5628 49.4856C79.0204 49.7559 79.4202 50.1137 79.7393 50.5387C80.0583 50.9637 80.2905 51.4474 80.4224 51.9622C80.5544 52.477 80.5835 53.0127 80.5081 53.5388C79.495 60.5471 76.2104 67.0295 71.1582 71.9911C66.106 76.9528 59.5653 80.1197 52.5398 81.0059V85.2982C52.5398 86.3701 52.1139 87.3981 51.356 88.1561C50.598 88.914 49.57 89.3398 48.4981 89.3398C47.4262 89.3398 46.3982 88.914 45.6402 88.1561C44.8822 87.3981 44.4564 86.3701 44.4564 85.2982V81.0059C37.4319 80.1183 30.8925 76.9508 25.8412 71.9893C20.7899 67.0278 17.5056 60.5462 16.4921 53.5388C16.3399 52.4776 16.6155 51.3994 17.2583 50.5414C17.901 49.6833 18.8583 49.1158 19.9195 48.9636C20.9807 48.8114 22.0589 49.087 22.9169 49.7297C23.7749 50.3725 24.3424 51.3297 24.4946 52.3909C25.3305 58.1608 28.2168 63.4365 32.6249 67.252C37.033 71.0675 42.668 73.1675 48.4981 73.1675C54.3282 73.1675 59.9632 71.0675 64.3713 67.252C68.7794 63.4365 71.6657 58.1608 72.5015 52.3909C72.5769 51.8654 72.7549 51.3599 73.0256 50.9033C73.2963 50.4467 73.6543 50.0478 74.0792 49.7295C74.504 49.4113 74.9874 49.1798 75.5018 49.0484C76.0161 48.917 76.5472 48.8882 77.0727 48.9636ZM48.4981 8.50651C51.8082 8.50651 54.9324 9.30272 57.6888 10.7133C55.8594 12.0001 54.4215 13.7679 53.5342 15.8212C52.647 17.8744 52.345 20.1331 52.6617 22.3473C52.9784 24.5615 53.9014 26.645 55.3286 28.3672C56.7558 30.0895 58.6315 31.3834 60.7484 32.1058L62.2761 32.6312C62.8598 32.8304 63.3902 33.1604 63.8266 33.5962C64.2631 34.0319 64.594 34.5618 64.7941 35.1451L65.3155 36.6729C66.0026 38.6937 67.1908 40.4397 68.7064 41.7937V48.9232C68.7064 54.2828 66.5773 59.4228 62.7875 63.2126C58.9977 67.0024 53.8577 69.1315 48.4981 69.1315C43.1385 69.1315 37.9984 67.0024 34.2086 63.2126C30.4188 59.4228 28.2898 54.2828 28.2898 48.9232V28.7148C28.2898 23.3553 30.4188 18.2152 34.2086 14.4254C37.9984 10.6356 43.1385 8.50651 48.4981 8.50651ZM76.7898 4.46484C77.5459 4.46484 78.2868 4.67694 78.9284 5.07704C79.57 5.47714 80.0865 6.04919 80.4192 6.72818L80.6132 7.20105L81.1386 8.7288C81.6931 10.3543 82.5866 11.8434 83.76 13.0976C84.9333 14.3518 86.3598 15.3424 87.9448 16.0038L88.6925 16.2867L90.2202 16.8081C90.9768 17.0662 91.6398 17.5429 92.1255 18.1778C92.6111 18.8127 92.8976 19.5774 92.9486 20.3752C92.9997 21.1729 92.813 21.9679 92.4123 22.6595C92.0115 23.3512 91.4146 23.9085 90.6971 24.2609L90.2202 24.4549L88.6925 24.9803C87.067 25.5349 85.5778 26.4284 84.3237 27.6017C83.0695 28.7751 82.0789 30.2015 81.4175 31.7865L81.1346 32.5342L80.6132 34.062C80.3546 34.8183 79.8776 35.481 79.2424 35.9663C78.6072 36.4515 77.8424 36.7375 77.0447 36.7881C76.247 36.8388 75.4522 36.6517 74.7608 36.2506C74.0694 35.8495 73.5124 35.2524 73.1603 34.5348L72.9664 34.062L72.4409 32.5342C71.8864 30.9087 70.9929 29.4196 69.8195 28.1654C68.6462 26.9112 67.2198 25.9206 65.6348 25.2592L64.8871 24.9763L63.3593 24.4549C62.6027 24.1968 61.9397 23.7202 61.4541 23.0852C60.9684 22.4503 60.6819 21.6856 60.6309 20.8878C60.5798 20.0901 60.7665 19.2951 61.1673 18.6035C61.568 17.9118 62.1649 17.3545 62.8824 17.0021L63.3593 16.8081L64.8871 16.2827C66.5125 15.7282 68.0017 14.8346 69.2559 13.6613C70.51 12.4879 71.5006 11.0615 72.1621 9.47651L72.445 8.7288L72.9664 7.20105C73.2387 6.40317 73.7537 5.71042 74.4392 5.21978C75.1248 4.72915 75.9467 4.46518 76.7898 4.46484Z" fill="url(#paint0_linear_603_10219)"/>
<defs>
<linearGradient id="paint0_linear_603_10219" x1="54.704" y1="4.46484" x2="54.704" y2="89.3398" gradientUnits="userSpaceOnUse">
<stop stop-color="#0839BC"/>
<stop offset="1" stop-color="#9CBDC7"/>
</linearGradient>
</defs>
</svg>
